<mxfile host="app.diagrams.net" agent="Mozilla/5.0 (Windows NT 10.0; Win64; x64) AppleWebKit/537.36 (KHTML, like Gecko) Chrome/133.0.0.0 Safari/537.36" version="26.1.0" pages="7">
  <diagram name="Página-1" id="zCuswcaeGJQmjMraJhk2">
    <mxGraphModel dx="1434" dy="772" grid="1" gridSize="10" guides="1" tooltips="1" connect="1" arrows="1" fold="1" page="1" pageScale="1" pageWidth="827" pageHeight="1169" math="0" shadow="0">
      <root>
        <mxCell id="0" />
        <mxCell id="1" parent="0" />
        <mxCell id="DjO_n_5iFx8f9AAbJc-3-18" value="recepcionista" style="shape=umlActor;verticalLabelPosition=bottom;verticalAlign=top;html=1;outlineConnect=0;" parent="1" vertex="1">
          <mxGeometry x="190" y="210" width="70" height="60" as="geometry" />
        </mxCell>
        <mxCell id="DjO_n_5iFx8f9AAbJc-3-21" value="" style="endArrow=none;html=1;rounded=0;" parent="1" target="DjO_n_5iFx8f9AAbJc-3-22" edge="1">
          <mxGeometry width="50" height="50" relative="1" as="geometry">
            <mxPoint x="280" y="230" as="sourcePoint" />
            <mxPoint x="340" y="160" as="targetPoint" />
          </mxGeometry>
        </mxCell>
        <mxCell id="DjO_n_5iFx8f9AAbJc-3-22" value="confirma reserva" style="ellipse;whiteSpace=wrap;html=1;" parent="1" vertex="1">
          <mxGeometry x="294" y="110" width="120" height="80" as="geometry" />
        </mxCell>
        <mxCell id="DjO_n_5iFx8f9AAbJc-3-24" value="" style="endArrow=none;html=1;rounded=0;" parent="1" target="DjO_n_5iFx8f9AAbJc-3-25" edge="1">
          <mxGeometry width="50" height="50" relative="1" as="geometry">
            <mxPoint x="270" y="270" as="sourcePoint" />
            <mxPoint x="340" y="290" as="targetPoint" />
          </mxGeometry>
        </mxCell>
        <mxCell id="DjO_n_5iFx8f9AAbJc-3-25" value="gerenciar disponibilidade de quartos" style="ellipse;whiteSpace=wrap;html=1;" parent="1" vertex="1">
          <mxGeometry x="300" y="270" width="120" height="80" as="geometry" />
        </mxCell>
      </root>
    </mxGraphModel>
  </diagram>
  <diagram id="Ge2m0im9wP8cIlqUEZHl" name="Página-2">
    <mxGraphModel dx="1055" dy="772" grid="1" gridSize="10" guides="1" tooltips="1" connect="1" arrows="1" fold="1" page="1" pageScale="1" pageWidth="827" pageHeight="1169" math="0" shadow="0">
      <root>
        <mxCell id="0" />
        <mxCell id="1" parent="0" />
        <mxCell id="xvXG7NXDaECGWljPArB2-1" value="cliente" style="shape=umlActor;verticalLabelPosition=bottom;verticalAlign=top;html=1;outlineConnect=0;" vertex="1" parent="1">
          <mxGeometry x="150" y="230" width="50" height="90" as="geometry" />
        </mxCell>
        <mxCell id="xvXG7NXDaECGWljPArB2-5" value="" style="endArrow=none;html=1;rounded=0;" edge="1" parent="1" source="xvXG7NXDaECGWljPArB2-1" target="xvXG7NXDaECGWljPArB2-6">
          <mxGeometry width="50" height="50" relative="1" as="geometry">
            <mxPoint x="250" y="270" as="sourcePoint" />
            <mxPoint x="380" y="200" as="targetPoint" />
            <Array as="points">
              <mxPoint x="350" y="200" />
              <mxPoint x="370" y="200" />
            </Array>
          </mxGeometry>
        </mxCell>
        <mxCell id="xvXG7NXDaECGWljPArB2-6" value="cancelar reserva" style="ellipse;whiteSpace=wrap;html=1;" vertex="1" parent="1">
          <mxGeometry x="340" y="170" width="120" height="80" as="geometry" />
        </mxCell>
        <mxCell id="xvXG7NXDaECGWljPArB2-7" value="" style="endArrow=none;html=1;rounded=0;" edge="1" parent="1" target="xvXG7NXDaECGWljPArB2-8">
          <mxGeometry width="50" height="50" relative="1" as="geometry">
            <mxPoint x="210" y="310" as="sourcePoint" />
            <mxPoint x="340" y="330" as="targetPoint" />
          </mxGeometry>
        </mxCell>
        <mxCell id="xvXG7NXDaECGWljPArB2-8" value="fazer reserva" style="ellipse;whiteSpace=wrap;html=1;" vertex="1" parent="1">
          <mxGeometry x="340" y="310" width="120" height="80" as="geometry" />
        </mxCell>
      </root>
    </mxGraphModel>
  </diagram>
  <diagram id="KKnsp8sjkk53pYSRfaIY" name="Página-3">
    <mxGraphModel dx="1055" dy="772" grid="1" gridSize="10" guides="1" tooltips="1" connect="1" arrows="1" fold="1" page="1" pageScale="1" pageWidth="827" pageHeight="1169" math="0" shadow="0">
      <root>
        <mxCell id="0" />
        <mxCell id="1" parent="0" />
        <mxCell id="1uLgwUFtVePHb0bL4Pvj-1" value="cliente" style="shape=umlActor;verticalLabelPosition=bottom;verticalAlign=top;html=1;outlineConnect=0;" vertex="1" parent="1">
          <mxGeometry x="120" y="220" width="40" height="80" as="geometry" />
        </mxCell>
        <mxCell id="1uLgwUFtVePHb0bL4Pvj-2" value="" style="endArrow=none;html=1;rounded=0;" edge="1" parent="1" target="1uLgwUFtVePHb0bL4Pvj-3">
          <mxGeometry width="50" height="50" relative="1" as="geometry">
            <mxPoint x="170" y="240" as="sourcePoint" />
            <mxPoint x="220" y="190" as="targetPoint" />
          </mxGeometry>
        </mxCell>
        <mxCell id="1uLgwUFtVePHb0bL4Pvj-3" value="navegar pelo catálogo" style="ellipse;whiteSpace=wrap;html=1;" vertex="1" parent="1">
          <mxGeometry x="200" y="80" width="120" height="80" as="geometry" />
        </mxCell>
        <mxCell id="1uLgwUFtVePHb0bL4Pvj-4" value="" style="endArrow=none;html=1;rounded=0;" edge="1" parent="1">
          <mxGeometry width="50" height="50" relative="1" as="geometry">
            <mxPoint x="170" y="270" as="sourcePoint" />
            <mxPoint x="220" y="220" as="targetPoint" />
            <Array as="points">
              <mxPoint x="200" y="240" />
            </Array>
          </mxGeometry>
        </mxCell>
        <mxCell id="1uLgwUFtVePHb0bL4Pvj-10" style="edgeStyle=orthogonalEdgeStyle;rounded=0;orthogonalLoop=1;jettySize=auto;html=1;exitX=0.5;exitY=0;exitDx=0;exitDy=0;" edge="1" parent="1" source="1uLgwUFtVePHb0bL4Pvj-5">
          <mxGeometry relative="1" as="geometry">
            <mxPoint x="280" y="180" as="targetPoint" />
            <Array as="points">
              <mxPoint x="280" y="200" />
              <mxPoint x="280" y="200" />
            </Array>
          </mxGeometry>
        </mxCell>
        <mxCell id="1uLgwUFtVePHb0bL4Pvj-5" value="colocar item no carrinho" style="ellipse;whiteSpace=wrap;html=1;" vertex="1" parent="1">
          <mxGeometry x="220" y="180" width="120" height="70" as="geometry" />
        </mxCell>
        <mxCell id="1uLgwUFtVePHb0bL4Pvj-6" value="" style="endArrow=none;html=1;rounded=0;" edge="1" parent="1">
          <mxGeometry width="50" height="50" relative="1" as="geometry">
            <mxPoint x="170" y="320" as="sourcePoint" />
            <mxPoint x="270" y="370" as="targetPoint" />
          </mxGeometry>
        </mxCell>
        <mxCell id="1uLgwUFtVePHb0bL4Pvj-7" value="finalizar compra" style="ellipse;whiteSpace=wrap;html=1;" vertex="1" parent="1">
          <mxGeometry x="260" y="340" width="120" height="80" as="geometry" />
        </mxCell>
        <mxCell id="1uLgwUFtVePHb0bL4Pvj-8" value="" style="endArrow=none;dashed=1;html=1;dashPattern=1 3;strokeWidth=2;rounded=0;" edge="1" parent="1">
          <mxGeometry width="50" height="50" relative="1" as="geometry">
            <mxPoint x="500" y="370" as="sourcePoint" />
            <mxPoint x="530" y="370" as="targetPoint" />
            <Array as="points">
              <mxPoint x="380" y="370" />
            </Array>
          </mxGeometry>
        </mxCell>
        <mxCell id="1uLgwUFtVePHb0bL4Pvj-9" value="faturar compra" style="ellipse;whiteSpace=wrap;html=1;" vertex="1" parent="1">
          <mxGeometry x="510" y="340" width="120" height="70" as="geometry" />
        </mxCell>
        <mxCell id="1uLgwUFtVePHb0bL4Pvj-13" value="sistema" style="shape=umlActor;verticalLabelPosition=bottom;verticalAlign=top;html=1;outlineConnect=0;" vertex="1" parent="1">
          <mxGeometry x="770" y="220" width="30" height="60" as="geometry" />
        </mxCell>
        <mxCell id="1uLgwUFtVePHb0bL4Pvj-16" value="" style="endArrow=none;dashed=1;html=1;rounded=0;" edge="1" parent="1">
          <mxGeometry width="50" height="50" relative="1" as="geometry">
            <mxPoint x="290" y="350" as="sourcePoint" />
            <mxPoint x="290" y="310" as="targetPoint" />
          </mxGeometry>
        </mxCell>
        <mxCell id="1uLgwUFtVePHb0bL4Pvj-17" value="informa endereço" style="ellipse;whiteSpace=wrap;html=1;" vertex="1" parent="1">
          <mxGeometry x="230" y="270" width="120" height="60" as="geometry" />
        </mxCell>
        <mxCell id="1uLgwUFtVePHb0bL4Pvj-19" value="" style="endArrow=none;dashed=1;html=1;dashPattern=1 3;strokeWidth=2;rounded=0;" edge="1" parent="1">
          <mxGeometry width="50" height="50" relative="1" as="geometry">
            <mxPoint x="360" y="330" as="sourcePoint" />
            <mxPoint x="410" y="280" as="targetPoint" />
          </mxGeometry>
        </mxCell>
        <mxCell id="1uLgwUFtVePHb0bL4Pvj-20" value="preencher dados do cartao de credito" style="ellipse;whiteSpace=wrap;html=1;" vertex="1" parent="1">
          <mxGeometry x="361" y="250" width="106" height="50" as="geometry" />
        </mxCell>
        <mxCell id="1uLgwUFtVePHb0bL4Pvj-22" value="" style="endArrow=none;dashed=1;html=1;dashPattern=1 3;strokeWidth=2;rounded=0;" edge="1" parent="1">
          <mxGeometry width="50" height="50" relative="1" as="geometry">
            <mxPoint x="460" y="270" as="sourcePoint" />
            <mxPoint x="530" y="230" as="targetPoint" />
            <Array as="points">
              <mxPoint x="500" y="230" />
            </Array>
          </mxGeometry>
        </mxCell>
        <mxCell id="1uLgwUFtVePHb0bL4Pvj-23" value="verificar ados de cartão de crédito" style="ellipse;whiteSpace=wrap;html=1;" vertex="1" parent="1">
          <mxGeometry x="500" y="190" width="120" height="70" as="geometry" />
        </mxCell>
        <mxCell id="1uLgwUFtVePHb0bL4Pvj-24" value="" style="endArrow=none;html=1;rounded=0;entryX=0;entryY=1;entryDx=0;entryDy=0;entryPerimeter=0;" edge="1" parent="1" target="1uLgwUFtVePHb0bL4Pvj-13">
          <mxGeometry width="50" height="50" relative="1" as="geometry">
            <mxPoint x="640" y="370" as="sourcePoint" />
            <mxPoint x="690" y="320" as="targetPoint" />
          </mxGeometry>
        </mxCell>
        <mxCell id="1uLgwUFtVePHb0bL4Pvj-25" value="" style="endArrow=none;html=1;rounded=0;" edge="1" parent="1">
          <mxGeometry width="50" height="50" relative="1" as="geometry">
            <mxPoint x="690" y="440" as="sourcePoint" />
            <mxPoint x="800" y="320" as="targetPoint" />
            <Array as="points">
              <mxPoint x="730" y="400" />
            </Array>
          </mxGeometry>
        </mxCell>
        <mxCell id="1uLgwUFtVePHb0bL4Pvj-26" value="enviar e-mail" style="ellipse;whiteSpace=wrap;html=1;" vertex="1" parent="1">
          <mxGeometry x="580" y="420" width="120" height="80" as="geometry" />
        </mxCell>
        <mxCell id="1uLgwUFtVePHb0bL4Pvj-27" value="" style="endArrow=none;html=1;rounded=0;" edge="1" parent="1">
          <mxGeometry width="50" height="50" relative="1" as="geometry">
            <mxPoint x="615" y="240" as="sourcePoint" />
            <mxPoint x="760" y="270" as="targetPoint" />
          </mxGeometry>
        </mxCell>
      </root>
    </mxGraphModel>
  </diagram>
  <diagram id="utjubQz5dOFMOAZuYEvV" name="Página-4">
    <mxGraphModel dx="945" dy="1845" grid="1" gridSize="10" guides="1" tooltips="1" connect="1" arrows="1" fold="1" page="1" pageScale="1" pageWidth="827" pageHeight="1169" math="0" shadow="0">
      <root>
        <mxCell id="0" />
        <mxCell id="1" parent="0" />
        <mxCell id="B6VJBqqzBfHEsrgBE4s1-1" value="recepcionista" style="shape=umlActor;verticalLabelPosition=bottom;verticalAlign=top;html=1;outlineConnect=0;" parent="1" vertex="1">
          <mxGeometry x="80" y="95" width="50" height="90" as="geometry" />
        </mxCell>
        <mxCell id="9_uFgT-DAebTzDmZzJD_-1" value="funcionário do estoque" style="shape=umlActor;verticalLabelPosition=bottom;verticalAlign=top;html=1;outlineConnect=0;" parent="1" vertex="1">
          <mxGeometry x="70" y="330" width="30" height="60" as="geometry" />
        </mxCell>
        <mxCell id="9_uFgT-DAebTzDmZzJD_-5" value="cliente" style="shape=umlActor;verticalLabelPosition=bottom;verticalAlign=top;html=1;outlineConnect=0;direction=east;" parent="1" vertex="1">
          <mxGeometry x="740" y="205" width="30" height="60" as="geometry" />
        </mxCell>
        <mxCell id="9_uFgT-DAebTzDmZzJD_-9" value="gerenciar hospedagem" style="ellipse;whiteSpace=wrap;html=1;" parent="1" vertex="1">
          <mxGeometry x="330" y="70" width="120" height="80" as="geometry" />
        </mxCell>
        <mxCell id="9_uFgT-DAebTzDmZzJD_-10" value="gerenciamento associados" style="ellipse;whiteSpace=wrap;html=1;" parent="1" vertex="1">
          <mxGeometry x="320" y="195" width="120" height="80" as="geometry" />
        </mxCell>
        <mxCell id="9_uFgT-DAebTzDmZzJD_-11" value="gerenciamento cliente" style="ellipse;whiteSpace=wrap;html=1;" parent="1" vertex="1">
          <mxGeometry x="320" y="290" width="120" height="80" as="geometry" />
        </mxCell>
        <mxCell id="9_uFgT-DAebTzDmZzJD_-12" value="disponibilidade de quartos" style="ellipse;whiteSpace=wrap;html=1;" parent="1" vertex="1">
          <mxGeometry x="320" y="380" width="120" height="80" as="geometry" />
        </mxCell>
        <mxCell id="9_uFgT-DAebTzDmZzJD_-13" value="gerenciamento estoque" style="ellipse;whiteSpace=wrap;html=1;" parent="1" vertex="1">
          <mxGeometry x="320" y="480" width="120" height="80" as="geometry" />
        </mxCell>
        <mxCell id="9_uFgT-DAebTzDmZzJD_-14" value="gerenciamento promoções" style="ellipse;whiteSpace=wrap;html=1;" parent="1" vertex="1">
          <mxGeometry x="330" y="584.5" width="120" height="80" as="geometry" />
        </mxCell>
        <mxCell id="9_uFgT-DAebTzDmZzJD_-15" value="" style="endArrow=none;html=1;rounded=0;exitX=0.058;exitY=0.65;exitDx=0;exitDy=0;exitPerimeter=0;" parent="1" source="9_uFgT-DAebTzDmZzJD_-10" target="9_uFgT-DAebTzDmZzJD_-9" edge="1">
          <mxGeometry width="50" height="50" relative="1" as="geometry">
            <mxPoint x="100" y="170" as="sourcePoint" />
            <mxPoint x="150" y="120" as="targetPoint" />
            <Array as="points">
              <mxPoint x="120" y="150" />
            </Array>
          </mxGeometry>
        </mxCell>
        <mxCell id="9_uFgT-DAebTzDmZzJD_-16" value="" style="endArrow=none;html=1;rounded=0;entryX=0.025;entryY=0.388;entryDx=0;entryDy=0;entryPerimeter=0;" parent="1" target="9_uFgT-DAebTzDmZzJD_-11" edge="1">
          <mxGeometry width="50" height="50" relative="1" as="geometry">
            <mxPoint x="120" y="150" as="sourcePoint" />
            <mxPoint x="140" y="180" as="targetPoint" />
            <Array as="points">
              <mxPoint x="210" y="230" />
            </Array>
          </mxGeometry>
        </mxCell>
        <mxCell id="9_uFgT-DAebTzDmZzJD_-18" value="" style="endArrow=none;html=1;rounded=0;entryX=0;entryY=0.5;entryDx=0;entryDy=0;" parent="1" target="9_uFgT-DAebTzDmZzJD_-11" edge="1">
          <mxGeometry width="50" height="50" relative="1" as="geometry">
            <mxPoint x="130" y="210" as="sourcePoint" />
            <mxPoint x="160" y="185" as="targetPoint" />
            <Array as="points">
              <mxPoint x="330" y="400" />
            </Array>
          </mxGeometry>
        </mxCell>
        <mxCell id="9_uFgT-DAebTzDmZzJD_-19" style="edgeStyle=orthogonalEdgeStyle;rounded=0;orthogonalLoop=1;jettySize=auto;html=1;exitX=0.5;exitY=0.5;exitDx=0;exitDy=0;exitPerimeter=0;entryX=0.633;entryY=0.383;entryDx=0;entryDy=0;entryPerimeter=0;" parent="1" source="9_uFgT-DAebTzDmZzJD_-1" target="9_uFgT-DAebTzDmZzJD_-1" edge="1">
          <mxGeometry relative="1" as="geometry" />
        </mxCell>
        <mxCell id="9_uFgT-DAebTzDmZzJD_-20" value="" style="endArrow=none;html=1;rounded=0;entryX=0;entryY=0.5;entryDx=0;entryDy=0;" parent="1" target="9_uFgT-DAebTzDmZzJD_-12" edge="1">
          <mxGeometry width="50" height="50" relative="1" as="geometry">
            <mxPoint x="150" y="400" as="sourcePoint" />
            <mxPoint x="200" y="350" as="targetPoint" />
            <Array as="points">
              <mxPoint x="320" y="520" />
            </Array>
          </mxGeometry>
        </mxCell>
        <mxCell id="9_uFgT-DAebTzDmZzJD_-21" value="marketin" style="shape=umlActor;verticalLabelPosition=bottom;verticalAlign=top;html=1;outlineConnect=0;" parent="1" vertex="1">
          <mxGeometry x="70" y="470" width="30" height="60" as="geometry" />
        </mxCell>
        <mxCell id="9_uFgT-DAebTzDmZzJD_-22" value="" style="endArrow=none;html=1;rounded=0;entryX=0;entryY=0.5;entryDx=0;entryDy=0;" parent="1" target="9_uFgT-DAebTzDmZzJD_-14" edge="1">
          <mxGeometry width="50" height="50" relative="1" as="geometry">
            <mxPoint x="100" y="530" as="sourcePoint" />
            <mxPoint x="150" y="480" as="targetPoint" />
          </mxGeometry>
        </mxCell>
        <mxCell id="9_uFgT-DAebTzDmZzJD_-23" value="" style="endArrow=none;html=1;rounded=0;exitX=1;exitY=0.5;exitDx=0;exitDy=0;" parent="1" source="9_uFgT-DAebTzDmZzJD_-9" edge="1">
          <mxGeometry width="50" height="50" relative="1" as="geometry">
            <mxPoint x="700" y="300" as="sourcePoint" />
            <mxPoint x="750" y="250" as="targetPoint" />
          </mxGeometry>
        </mxCell>
        <mxCell id="9_uFgT-DAebTzDmZzJD_-27" value="" style="endArrow=none;html=1;rounded=0;exitX=1;exitY=0.5;exitDx=0;exitDy=0;" parent="1" source="9_uFgT-DAebTzDmZzJD_-12" edge="1">
          <mxGeometry width="50" height="50" relative="1" as="geometry">
            <mxPoint x="690" y="310" as="sourcePoint" />
            <mxPoint x="740" y="260" as="targetPoint" />
          </mxGeometry>
        </mxCell>
        <mxCell id="9_uFgT-DAebTzDmZzJD_-30" value="funcionário da limpeza" style="shape=umlActor;verticalLabelPosition=bottom;verticalAlign=top;html=1;outlineConnect=0;" parent="1" vertex="1">
          <mxGeometry x="710" y="40" width="30" height="60" as="geometry" />
        </mxCell>
        <mxCell id="9_uFgT-DAebTzDmZzJD_-31" value="" style="endArrow=none;html=1;rounded=0;" parent="1" source="9_uFgT-DAebTzDmZzJD_-9" edge="1">
          <mxGeometry width="50" height="50" relative="1" as="geometry">
            <mxPoint x="670" y="145" as="sourcePoint" />
            <mxPoint x="720" y="95" as="targetPoint" />
          </mxGeometry>
        </mxCell>
        <mxCell id="9_uFgT-DAebTzDmZzJD_-32" value="cadastro" style="ellipse;whiteSpace=wrap;html=1;" parent="1" vertex="1">
          <mxGeometry x="330" y="664.5" width="120" height="80" as="geometry" />
        </mxCell>
        <mxCell id="9_uFgT-DAebTzDmZzJD_-33" value="" style="endArrow=none;html=1;rounded=0;exitX=1;exitY=0.5;exitDx=0;exitDy=0;" parent="1" source="9_uFgT-DAebTzDmZzJD_-32" edge="1">
          <mxGeometry width="50" height="50" relative="1" as="geometry">
            <mxPoint x="700" y="310" as="sourcePoint" />
            <mxPoint x="750" y="260" as="targetPoint" />
          </mxGeometry>
        </mxCell>
      </root>
    </mxGraphModel>
  </diagram>
  <diagram id="EvW1bsnW2k65eGM7Q1Nw" name="Página-5">
    <mxGraphModel dx="1434" dy="772" grid="1" gridSize="10" guides="1" tooltips="1" connect="1" arrows="1" fold="1" page="1" pageScale="1" pageWidth="827" pageHeight="1169" math="0" shadow="0">
      <root>
        <mxCell id="0" />
        <mxCell id="1" parent="0" />
        <mxCell id="WLpDOh0-8YlNOmeCr5dw-1" value="estudante&amp;nbsp;" style="shape=umlActor;verticalLabelPosition=bottom;verticalAlign=top;html=1;outlineConnect=0;" parent="1" vertex="1">
          <mxGeometry x="70" y="120" width="30" height="60" as="geometry" />
        </mxCell>
        <mxCell id="WLpDOh0-8YlNOmeCr5dw-2" value="logar. no quiz&amp;nbsp;" style="ellipse;whiteSpace=wrap;html=1;" parent="1" vertex="1">
          <mxGeometry x="170" y="102.5" width="120" height="70" as="geometry" />
        </mxCell>
        <mxCell id="WLpDOh0-8YlNOmeCr5dw-3" value="criar&amp;nbsp; login" style="ellipse;whiteSpace=wrap;html=1;" parent="1" vertex="1">
          <mxGeometry x="170" y="10" width="120" height="50" as="geometry" />
        </mxCell>
        <mxCell id="WLpDOh0-8YlNOmeCr5dw-5" value="fazer senha" style="ellipse;whiteSpace=wrap;html=1;" parent="1" vertex="1">
          <mxGeometry x="330" y="42.5" width="120" height="45" as="geometry" />
        </mxCell>
        <mxCell id="WLpDOh0-8YlNOmeCr5dw-6" value="visualiza o quiz e suas regras" style="ellipse;whiteSpace=wrap;html=1;" parent="1" vertex="1">
          <mxGeometry x="410" y="100" width="120" height="70" as="geometry" />
        </mxCell>
        <mxCell id="WLpDOh0-8YlNOmeCr5dw-7" value="sistema" style="shape=umlActor;verticalLabelPosition=bottom;verticalAlign=top;html=1;outlineConnect=0;" parent="1" vertex="1">
          <mxGeometry x="70" y="330" width="30" height="60" as="geometry" />
        </mxCell>
        <mxCell id="P0T01yl8f2WsJSJKRSHd-2" value="responde o quiz&amp;nbsp;" style="ellipse;whiteSpace=wrap;html=1;" parent="1" vertex="1">
          <mxGeometry x="610" y="105" width="120" height="65" as="geometry" />
        </mxCell>
        <mxCell id="P0T01yl8f2WsJSJKRSHd-3" value="recuperação de senha e cadastro" style="ellipse;whiteSpace=wrap;html=1;" parent="1" vertex="1">
          <mxGeometry x="500" y="20" width="120" height="50" as="geometry" />
        </mxCell>
        <mxCell id="P0T01yl8f2WsJSJKRSHd-4" value="" style="endArrow=classic;html=1;rounded=0;entryX=0.025;entryY=0.664;entryDx=0;entryDy=0;entryPerimeter=0;" parent="1" target="WLpDOh0-8YlNOmeCr5dw-2" edge="1">
          <mxGeometry width="50" height="50" relative="1" as="geometry">
            <mxPoint x="100" y="180" as="sourcePoint" />
            <mxPoint x="150" y="130" as="targetPoint" />
          </mxGeometry>
        </mxCell>
        <mxCell id="P0T01yl8f2WsJSJKRSHd-5" value="" style="endArrow=classic;html=1;rounded=0;exitX=1;exitY=0.5;exitDx=0;exitDy=0;" parent="1" source="WLpDOh0-8YlNOmeCr5dw-2" edge="1">
          <mxGeometry width="50" height="50" relative="1" as="geometry">
            <mxPoint x="310" y="139.5" as="sourcePoint" />
            <mxPoint x="410" y="140" as="targetPoint" />
            <Array as="points">
              <mxPoint x="400" y="140" />
              <mxPoint x="380" y="140" />
              <mxPoint x="390" y="138" />
            </Array>
          </mxGeometry>
        </mxCell>
        <mxCell id="P0T01yl8f2WsJSJKRSHd-7" value="" style="endArrow=classic;html=1;rounded=0;entryX=0;entryY=0.5;entryDx=0;entryDy=0;" parent="1" target="P0T01yl8f2WsJSJKRSHd-2" edge="1">
          <mxGeometry width="50" height="50" relative="1" as="geometry">
            <mxPoint x="530" y="137.5" as="sourcePoint" />
            <mxPoint x="580" y="87.5" as="targetPoint" />
            <Array as="points" />
          </mxGeometry>
        </mxCell>
        <mxCell id="P0T01yl8f2WsJSJKRSHd-9" value="" style="endArrow=none;dashed=1;html=1;dashPattern=1 3;strokeWidth=2;rounded=0;entryX=0.058;entryY=0.856;entryDx=0;entryDy=0;entryPerimeter=0;" parent="1" target="WLpDOh0-8YlNOmeCr5dw-5" edge="1">
          <mxGeometry width="50" height="50" relative="1" as="geometry">
            <mxPoint x="210" y="105" as="sourcePoint" />
            <mxPoint x="260" y="55" as="targetPoint" />
          </mxGeometry>
        </mxCell>
        <mxCell id="P0T01yl8f2WsJSJKRSHd-10" value="" style="endArrow=none;dashed=1;html=1;dashPattern=1 3;strokeWidth=2;rounded=0;entryX=0.5;entryY=1;entryDx=0;entryDy=0;" parent="1" target="WLpDOh0-8YlNOmeCr5dw-3" edge="1">
          <mxGeometry width="50" height="50" relative="1" as="geometry">
            <mxPoint x="205" y="105" as="sourcePoint" />
            <mxPoint x="255" y="55" as="targetPoint" />
          </mxGeometry>
        </mxCell>
        <mxCell id="P0T01yl8f2WsJSJKRSHd-11" value="" style="endArrow=none;dashed=1;html=1;dashPattern=1 3;strokeWidth=2;rounded=0;entryX=0;entryY=0.5;entryDx=0;entryDy=0;" parent="1" target="P0T01yl8f2WsJSJKRSHd-3" edge="1">
          <mxGeometry width="50" height="50" relative="1" as="geometry">
            <mxPoint x="450" y="70" as="sourcePoint" />
            <mxPoint x="500" y="20" as="targetPoint" />
          </mxGeometry>
        </mxCell>
        <mxCell id="P0T01yl8f2WsJSJKRSHd-12" value="faz o cadastro" style="ellipse;whiteSpace=wrap;html=1;" parent="1" vertex="1">
          <mxGeometry x="150" y="310" width="120" height="80" as="geometry" />
        </mxCell>
        <mxCell id="P0T01yl8f2WsJSJKRSHd-13" value="sequencia de pontos do usuário" style="ellipse;whiteSpace=wrap;html=1;" parent="1" vertex="1">
          <mxGeometry x="400" y="320" width="120" height="80" as="geometry" />
        </mxCell>
        <mxCell id="P0T01yl8f2WsJSJKRSHd-14" value="mostrar o nivel de difiuculdade&amp;nbsp;" style="ellipse;whiteSpace=wrap;html=1;" parent="1" vertex="1">
          <mxGeometry x="630" y="320" width="120" height="80" as="geometry" />
        </mxCell>
        <mxCell id="P0T01yl8f2WsJSJKRSHd-22" value="" style="endArrow=classic;html=1;rounded=0;" parent="1" target="P0T01yl8f2WsJSJKRSHd-13" edge="1">
          <mxGeometry width="50" height="50" relative="1" as="geometry">
            <mxPoint x="270" y="360" as="sourcePoint" />
            <mxPoint x="320" y="310" as="targetPoint" />
          </mxGeometry>
        </mxCell>
        <mxCell id="P0T01yl8f2WsJSJKRSHd-23" value="" style="endArrow=classic;html=1;rounded=0;entryX=0;entryY=0.5;entryDx=0;entryDy=0;" parent="1" target="P0T01yl8f2WsJSJKRSHd-14" edge="1">
          <mxGeometry width="50" height="50" relative="1" as="geometry">
            <mxPoint x="530" y="360" as="sourcePoint" />
            <mxPoint x="580" y="310" as="targetPoint" />
          </mxGeometry>
        </mxCell>
        <mxCell id="P0T01yl8f2WsJSJKRSHd-32" value="regras do jogo" style="ellipse;whiteSpace=wrap;html=1;" parent="1" vertex="1">
          <mxGeometry x="640" y="460" width="120" height="80" as="geometry" />
        </mxCell>
        <mxCell id="P0T01yl8f2WsJSJKRSHd-33" value="segurança do usuario" style="ellipse;whiteSpace=wrap;html=1;" parent="1" vertex="1">
          <mxGeometry x="414" y="460" width="120" height="80" as="geometry" />
        </mxCell>
        <mxCell id="P0T01yl8f2WsJSJKRSHd-34" value="segurança dos dados" style="ellipse;whiteSpace=wrap;html=1;" parent="1" vertex="1">
          <mxGeometry x="230" y="460" width="120" height="80" as="geometry" />
        </mxCell>
        <mxCell id="P0T01yl8f2WsJSJKRSHd-35" value="finalização do quiz e seu desempenho" style="ellipse;whiteSpace=wrap;html=1;" parent="1" vertex="1">
          <mxGeometry x="70" y="530" width="120" height="80" as="geometry" />
        </mxCell>
        <mxCell id="P0T01yl8f2WsJSJKRSHd-37" value="" style="endArrow=none;dashed=1;html=1;dashPattern=1 3;strokeWidth=2;rounded=0;" parent="1" source="P0T01yl8f2WsJSJKRSHd-32" edge="1">
          <mxGeometry width="50" height="50" relative="1" as="geometry">
            <mxPoint x="702.5" y="450" as="sourcePoint" />
            <mxPoint x="697.5" y="400" as="targetPoint" />
          </mxGeometry>
        </mxCell>
        <mxCell id="P0T01yl8f2WsJSJKRSHd-38" value="" style="endArrow=none;dashed=1;html=1;dashPattern=1 3;strokeWidth=2;rounded=0;entryX=0.083;entryY=0.625;entryDx=0;entryDy=0;entryPerimeter=0;" parent="1" target="P0T01yl8f2WsJSJKRSHd-32" edge="1">
          <mxGeometry width="50" height="50" relative="1" as="geometry">
            <mxPoint x="530" y="510" as="sourcePoint" />
            <mxPoint x="580" y="460" as="targetPoint" />
          </mxGeometry>
        </mxCell>
        <mxCell id="P0T01yl8f2WsJSJKRSHd-39" value="" style="endArrow=none;dashed=1;html=1;dashPattern=1 3;strokeWidth=2;rounded=0;" parent="1" target="P0T01yl8f2WsJSJKRSHd-33" edge="1">
          <mxGeometry width="50" height="50" relative="1" as="geometry">
            <mxPoint x="350" y="500" as="sourcePoint" />
            <mxPoint x="400" y="450" as="targetPoint" />
          </mxGeometry>
        </mxCell>
        <mxCell id="P0T01yl8f2WsJSJKRSHd-40" value="" style="endArrow=none;dashed=1;html=1;dashPattern=1 3;strokeWidth=2;rounded=0;" parent="1" edge="1">
          <mxGeometry width="50" height="50" relative="1" as="geometry">
            <mxPoint x="185" y="550" as="sourcePoint" />
            <mxPoint x="235" y="500" as="targetPoint" />
          </mxGeometry>
        </mxCell>
        <mxCell id="P0T01yl8f2WsJSJKRSHd-41" value="nivel da&amp;nbsp; dificuldade" style="ellipse;whiteSpace=wrap;html=1;" parent="1" vertex="1">
          <mxGeometry x="600" y="200" width="120" height="60" as="geometry" />
        </mxCell>
        <mxCell id="P0T01yl8f2WsJSJKRSHd-42" value="responder as perguntas" style="ellipse;whiteSpace=wrap;html=1;" parent="1" vertex="1">
          <mxGeometry x="390" y="200" width="120" height="60" as="geometry" />
        </mxCell>
        <mxCell id="P0T01yl8f2WsJSJKRSHd-43" value="pontuação final e desempenho" style="ellipse;whiteSpace=wrap;html=1;" parent="1" vertex="1">
          <mxGeometry x="210" y="200" width="120" height="60" as="geometry" />
        </mxCell>
        <mxCell id="P0T01yl8f2WsJSJKRSHd-44" value="" style="endArrow=none;dashed=1;html=1;dashPattern=1 3;strokeWidth=2;rounded=0;" parent="1" target="P0T01yl8f2WsJSJKRSHd-41" edge="1">
          <mxGeometry width="50" height="50" relative="1" as="geometry">
            <mxPoint x="500" y="230" as="sourcePoint" />
            <mxPoint x="540" y="180" as="targetPoint" />
            <Array as="points">
              <mxPoint x="550" y="230" />
            </Array>
          </mxGeometry>
        </mxCell>
        <mxCell id="P0T01yl8f2WsJSJKRSHd-45" value="" style="endArrow=none;dashed=1;html=1;dashPattern=1 3;strokeWidth=2;rounded=0;" parent="1" edge="1">
          <mxGeometry width="50" height="50" relative="1" as="geometry">
            <mxPoint x="650" y="210" as="sourcePoint" />
            <mxPoint x="700" y="160" as="targetPoint" />
          </mxGeometry>
        </mxCell>
        <mxCell id="P0T01yl8f2WsJSJKRSHd-47" value="" style="endArrow=none;dashed=1;html=1;dashPattern=1 3;strokeWidth=2;rounded=0;entryX=0;entryY=0.5;entryDx=0;entryDy=0;" parent="1" target="P0T01yl8f2WsJSJKRSHd-42" edge="1">
          <mxGeometry width="50" height="50" relative="1" as="geometry">
            <mxPoint x="340" y="240" as="sourcePoint" />
            <mxPoint x="390" y="190" as="targetPoint" />
            <Array as="points">
              <mxPoint x="330" y="230" />
            </Array>
          </mxGeometry>
        </mxCell>
      </root>
    </mxGraphModel>
  </diagram>
  <diagram id="qU6CV81Qrax8vCwsp8mn" name="Página-6">
    <mxGraphModel dx="1434" dy="1941" grid="1" gridSize="10" guides="1" tooltips="1" connect="1" arrows="1" fold="1" page="1" pageScale="1" pageWidth="827" pageHeight="1169" math="0" shadow="0">
      <root>
        <mxCell id="0" />
        <mxCell id="1" parent="0" />
        <mxCell id="pqffCtY0s8yHXaV5daZs-1" value="usuario" style="shape=umlActor;verticalLabelPosition=bottom;verticalAlign=top;html=1;outlineConnect=0;" parent="1" vertex="1">
          <mxGeometry x="30" y="240" width="40" height="80" as="geometry" />
        </mxCell>
        <mxCell id="pqffCtY0s8yHXaV5daZs-3" value="criar cadastro" style="ellipse;whiteSpace=wrap;html=1;" parent="1" vertex="1">
          <mxGeometry x="150" y="80" width="120" height="80" as="geometry" />
        </mxCell>
        <mxCell id="pqffCtY0s8yHXaV5daZs-4" value="fazer as tarerfas" style="ellipse;whiteSpace=wrap;html=1;" parent="1" vertex="1">
          <mxGeometry x="150" y="180" width="120" height="80" as="geometry" />
        </mxCell>
        <mxCell id="pqffCtY0s8yHXaV5daZs-8" value="" style="endArrow=none;html=1;rounded=0;entryX=0.017;entryY=0.663;entryDx=0;entryDy=0;entryPerimeter=0;" parent="1" target="pqffCtY0s8yHXaV5daZs-3" edge="1">
          <mxGeometry width="50" height="50" relative="1" as="geometry">
            <mxPoint x="70" y="320" as="sourcePoint" />
            <mxPoint x="120" y="270" as="targetPoint" />
            <Array as="points">
              <mxPoint x="90" y="300" />
              <mxPoint x="120" y="230" />
            </Array>
          </mxGeometry>
        </mxCell>
        <mxCell id="pqffCtY0s8yHXaV5daZs-10" value="" style="endArrow=none;html=1;rounded=0;entryX=0.05;entryY=0.725;entryDx=0;entryDy=0;entryPerimeter=0;" parent="1" target="pqffCtY0s8yHXaV5daZs-4" edge="1">
          <mxGeometry width="50" height="50" relative="1" as="geometry">
            <mxPoint x="80" y="310" as="sourcePoint" />
            <mxPoint x="130" y="260" as="targetPoint" />
            <Array as="points">
              <mxPoint x="110" y="280" />
            </Array>
          </mxGeometry>
        </mxCell>
        <mxCell id="pqffCtY0s8yHXaV5daZs-18" value="cadastro de tarefas" style="swimlane;fontStyle=0;childLayout=stackLayout;horizontal=1;startSize=26;fillColor=none;horizontalStack=0;resizeParent=1;resizeParentMax=0;resizeLast=0;collapsible=1;marginBottom=0;whiteSpace=wrap;html=1;" parent="1" vertex="1">
          <mxGeometry x="260" y="360" width="140" height="156" as="geometry" />
        </mxCell>
        <mxCell id="J9kitEK2X7uHX79GivrI-7" value="definir prioridades" style="text;strokeColor=none;fillColor=none;align=left;verticalAlign=top;spacingLeft=4;spacingRight=4;overflow=hidden;rotatable=0;points=[[0,0.5],[1,0.5]];portConstraint=eastwest;whiteSpace=wrap;html=1;" vertex="1" parent="pqffCtY0s8yHXaV5daZs-18">
          <mxGeometry y="26" width="140" height="26" as="geometry" />
        </mxCell>
        <mxCell id="J9kitEK2X7uHX79GivrI-8" value="datas" style="text;strokeColor=none;fillColor=none;align=left;verticalAlign=top;spacingLeft=4;spacingRight=4;overflow=hidden;rotatable=0;points=[[0,0.5],[1,0.5]];portConstraint=eastwest;whiteSpace=wrap;html=1;" vertex="1" parent="pqffCtY0s8yHXaV5daZs-18">
          <mxGeometry y="52" width="140" height="26" as="geometry" />
        </mxCell>
        <mxCell id="J9kitEK2X7uHX79GivrI-9" value="regras&amp;nbsp;" style="text;strokeColor=none;fillColor=none;align=left;verticalAlign=top;spacingLeft=4;spacingRight=4;overflow=hidden;rotatable=0;points=[[0,0.5],[1,0.5]];portConstraint=eastwest;whiteSpace=wrap;html=1;" vertex="1" parent="pqffCtY0s8yHXaV5daZs-18">
          <mxGeometry y="78" width="140" height="26" as="geometry" />
        </mxCell>
        <mxCell id="pqffCtY0s8yHXaV5daZs-19" value="repsonsabilidade" style="text;strokeColor=none;fillColor=none;align=left;verticalAlign=top;spacingLeft=4;spacingRight=4;overflow=hidden;rotatable=0;points=[[0,0.5],[1,0.5]];portConstraint=eastwest;whiteSpace=wrap;html=1;" parent="pqffCtY0s8yHXaV5daZs-18" vertex="1">
          <mxGeometry y="104" width="140" height="26" as="geometry" />
        </mxCell>
        <mxCell id="J9kitEK2X7uHX79GivrI-15" value="descrições da tarefas" style="text;strokeColor=none;fillColor=none;align=left;verticalAlign=top;spacingLeft=4;spacingRight=4;overflow=hidden;rotatable=0;points=[[0,0.5],[1,0.5]];portConstraint=eastwest;whiteSpace=wrap;html=1;" vertex="1" parent="pqffCtY0s8yHXaV5daZs-18">
          <mxGeometry y="130" width="140" height="26" as="geometry" />
        </mxCell>
        <mxCell id="J9kitEK2X7uHX79GivrI-10" value="edições de tarefas" style="swimlane;fontStyle=0;childLayout=stackLayout;horizontal=1;startSize=26;fillColor=none;horizontalStack=0;resizeParent=1;resizeParentMax=0;resizeLast=0;collapsible=1;marginBottom=0;whiteSpace=wrap;html=1;" vertex="1" parent="1">
          <mxGeometry x="470" y="360" width="140" height="146" as="geometry" />
        </mxCell>
        <mxCell id="J9kitEK2X7uHX79GivrI-12" value="tarefas escolhidas" style="text;strokeColor=none;fillColor=none;align=left;verticalAlign=top;spacingLeft=4;spacingRight=4;overflow=hidden;rotatable=0;points=[[0,0.5],[1,0.5]];portConstraint=eastwest;whiteSpace=wrap;html=1;" vertex="1" parent="J9kitEK2X7uHX79GivrI-10">
          <mxGeometry y="26" width="140" height="26" as="geometry" />
        </mxCell>
        <mxCell id="J9kitEK2X7uHX79GivrI-13" value="responder nos horarios certos" style="text;strokeColor=none;fillColor=none;align=left;verticalAlign=top;spacingLeft=4;spacingRight=4;overflow=hidden;rotatable=0;points=[[0,0.5],[1,0.5]];portConstraint=eastwest;whiteSpace=wrap;html=1;" vertex="1" parent="J9kitEK2X7uHX79GivrI-10">
          <mxGeometry y="52" width="140" height="38" as="geometry" />
        </mxCell>
        <mxCell id="J9kitEK2X7uHX79GivrI-16" value="prazo" style="text;strokeColor=none;fillColor=none;align=left;verticalAlign=top;spacingLeft=4;spacingRight=4;overflow=hidden;rotatable=0;points=[[0,0.5],[1,0.5]];portConstraint=eastwest;whiteSpace=wrap;html=1;" vertex="1" parent="J9kitEK2X7uHX79GivrI-10">
          <mxGeometry y="90" width="140" height="30" as="geometry" />
        </mxCell>
        <mxCell id="J9kitEK2X7uHX79GivrI-17" value="status da tarefa" style="text;strokeColor=none;fillColor=none;align=left;verticalAlign=top;spacingLeft=4;spacingRight=4;overflow=hidden;rotatable=0;points=[[0,0.5],[1,0.5]];portConstraint=eastwest;whiteSpace=wrap;html=1;" vertex="1" parent="J9kitEK2X7uHX79GivrI-10">
          <mxGeometry y="120" width="140" height="26" as="geometry" />
        </mxCell>
        <mxCell id="J9kitEK2X7uHX79GivrI-18" value="usuário" style="swimlane;fontStyle=1;align=center;verticalAlign=top;childLayout=stackLayout;horizontal=1;startSize=30;horizontalStack=0;resizeParent=1;resizeParentMax=0;resizeLast=0;collapsible=1;marginBottom=0;whiteSpace=wrap;html=1;" vertex="1" parent="1">
          <mxGeometry x="650" y="360" width="160" height="176" as="geometry" />
        </mxCell>
        <mxCell id="J9kitEK2X7uHX79GivrI-19" value="nome do usuário" style="text;strokeColor=none;fillColor=none;align=left;verticalAlign=top;spacingLeft=4;spacingRight=4;overflow=hidden;rotatable=0;points=[[0,0.5],[1,0.5]];portConstraint=eastwest;whiteSpace=wrap;html=1;" vertex="1" parent="J9kitEK2X7uHX79GivrI-18">
          <mxGeometry y="30" width="160" height="26" as="geometry" />
        </mxCell>
        <mxCell id="J9kitEK2X7uHX79GivrI-20" value="" style="line;strokeWidth=1;fillColor=none;align=left;verticalAlign=middle;spacingTop=-1;spacingLeft=3;spacingRight=3;rotatable=0;labelPosition=right;points=[];portConstraint=eastwest;strokeColor=inherit;" vertex="1" parent="J9kitEK2X7uHX79GivrI-18">
          <mxGeometry y="56" width="160" height="8" as="geometry" />
        </mxCell>
        <mxCell id="J9kitEK2X7uHX79GivrI-22" value="email" style="text;strokeColor=none;fillColor=none;align=left;verticalAlign=top;spacingLeft=4;spacingRight=4;overflow=hidden;rotatable=0;points=[[0,0.5],[1,0.5]];portConstraint=eastwest;whiteSpace=wrap;html=1;" vertex="1" parent="J9kitEK2X7uHX79GivrI-18">
          <mxGeometry y="64" width="160" height="26" as="geometry" />
        </mxCell>
        <mxCell id="J9kitEK2X7uHX79GivrI-21" value="CPF" style="text;strokeColor=none;fillColor=none;align=left;verticalAlign=top;spacingLeft=4;spacingRight=4;overflow=hidden;rotatable=0;points=[[0,0.5],[1,0.5]];portConstraint=eastwest;whiteSpace=wrap;html=1;" vertex="1" parent="J9kitEK2X7uHX79GivrI-18">
          <mxGeometry y="90" width="160" height="30" as="geometry" />
        </mxCell>
        <mxCell id="J9kitEK2X7uHX79GivrI-23" value="cria conta" style="text;strokeColor=none;fillColor=none;align=left;verticalAlign=top;spacingLeft=4;spacingRight=4;overflow=hidden;rotatable=0;points=[[0,0.5],[1,0.5]];portConstraint=eastwest;whiteSpace=wrap;html=1;" vertex="1" parent="J9kitEK2X7uHX79GivrI-18">
          <mxGeometry y="120" width="160" height="30" as="geometry" />
        </mxCell>
        <mxCell id="J9kitEK2X7uHX79GivrI-24" value="senha" style="text;strokeColor=none;fillColor=none;align=left;verticalAlign=top;spacingLeft=4;spacingRight=4;overflow=hidden;rotatable=0;points=[[0,0.5],[1,0.5]];portConstraint=eastwest;whiteSpace=wrap;html=1;" vertex="1" parent="J9kitEK2X7uHX79GivrI-18">
          <mxGeometry y="150" width="160" height="26" as="geometry" />
        </mxCell>
        <mxCell id="r1CS486bgMA01hDnAI-2-1" value="RF01 -&amp;nbsp;&lt;span style=&quot;text-align: left;&quot;&gt;cadastro de tarefas&lt;/span&gt;&lt;div&gt;&lt;span style=&quot;text-align: left;&quot;&gt;RF02 -&amp;nbsp;&lt;/span&gt;&lt;span style=&quot;text-align: left; background-color: transparent; color: light-dark(rgb(0, 0, 0), rgb(255, 255, 255));&quot;&gt;ediçao de tarefas&lt;/span&gt;&lt;/div&gt;" style="text;html=1;align=center;verticalAlign=middle;whiteSpace=wrap;rounded=0;" vertex="1" parent="1">
          <mxGeometry y="-70" width="250" height="30" as="geometry" />
        </mxCell>
        <mxCell id="r1CS486bgMA01hDnAI-2-2" value="&lt;p style=&quot;margin:0px;margin-top:4px;text-align:center;&quot;&gt;&lt;b&gt;Usuário&lt;/b&gt;&lt;/p&gt;&lt;hr size=&quot;1&quot; style=&quot;border-style:solid;&quot;&gt;&lt;p style=&quot;margin:0px;margin-left:4px;&quot;&gt;&lt;span style=&quot;background-color: transparent; color: light-dark(rgb(0, 0, 0), rgb(255, 255, 255));&quot;&gt;+ CPF: String&lt;/span&gt;&lt;/p&gt;&lt;p style=&quot;margin:0px;margin-left:4px;&quot;&gt;+ nomedousuario:&lt;/p&gt;&lt;p style=&quot;margin:0px;margin-left:4px;&quot;&gt;+email:&lt;/p&gt;&lt;p style=&quot;margin:0px;margin-left:4px;&quot;&gt;+senha:&lt;/p&gt;&lt;p style=&quot;margin:0px;margin-left:4px;&quot;&gt;&lt;br&gt;&lt;/p&gt;&lt;p style=&quot;margin:0px;margin-left:4px;&quot;&gt;&lt;br&gt;&lt;/p&gt;&lt;hr size=&quot;1&quot; style=&quot;border-style:solid;&quot;&gt;&lt;p style=&quot;margin:0px;margin-left:4px;&quot;&gt;+ criarConta()&lt;/p&gt;&lt;p style=&quot;margin:0px;margin-left:4px;&quot;&gt;&lt;br&gt;&lt;/p&gt;&lt;p style=&quot;margin:0px;margin-left:4px;&quot;&gt;&lt;br&gt;&lt;/p&gt;&lt;p style=&quot;margin:0px;margin-left:4px;&quot;&gt;&lt;br&gt;&lt;/p&gt;" style="verticalAlign=top;align=left;overflow=fill;html=1;whiteSpace=wrap;" vertex="1" parent="1">
          <mxGeometry x="414" y="50" width="160" height="200" as="geometry" />
        </mxCell>
        <mxCell id="r1CS486bgMA01hDnAI-2-3" style="edgeStyle=orthogonalEdgeStyle;rounded=0;orthogonalLoop=1;jettySize=auto;html=1;exitX=0.5;exitY=0;exitDx=0;exitDy=0;entryX=0.614;entryY=0.026;entryDx=0;entryDy=0;entryPerimeter=0;" edge="1" parent="1" source="pqffCtY0s8yHXaV5daZs-18" target="pqffCtY0s8yHXaV5daZs-18">
          <mxGeometry relative="1" as="geometry" />
        </mxCell>
        <mxCell id="r1CS486bgMA01hDnAI-2-4" value="&lt;p style=&quot;margin:0px;margin-top:4px;text-align:center;&quot;&gt;&lt;b&gt;Tarefas&lt;/b&gt;&lt;/p&gt;&lt;p style=&quot;margin:0px;margin-left:4px;&quot;&gt;+ field: Type&lt;/p&gt;&lt;hr size=&quot;1&quot; style=&quot;border-style:solid;&quot;&gt;&lt;p style=&quot;margin:0px;margin-left:4px;&quot;&gt;+ method(): Type&lt;/p&gt;" style="verticalAlign=top;align=left;overflow=fill;html=1;whiteSpace=wrap;" vertex="1" parent="1">
          <mxGeometry x="650" y="40" width="160" height="90" as="geometry" />
        </mxCell>
      </root>
    </mxGraphModel>
  </diagram>
  <diagram id="6GX9yE6T1SaPdOgblGTU" name="Página-7">
    <mxGraphModel grid="1" page="1" gridSize="10" guides="1" tooltips="1" connect="1" arrows="1" fold="1" pageScale="1" pageWidth="827" pageHeight="1169" math="0" shadow="0">
      <root>
        <mxCell id="0" />
        <mxCell id="1" parent="0" />
      </root>
    </mxGraphModel>
  </diagram>
</mxfile>
